<svg width="" height="65" viewBox="0 0 65 68" fill="none" xmlns="http://www.w3.org/2000/svg">
  <path d="M43.6042 41.5417H29.8125V29.5833H60.4583V64.875H52.9792L47.4167 49C46.2083 54.4896 43.6875 58.7188 39.8542 61.6875C36.0312 64.6458 31.4167 66.125 26 66.125C21.0104 66.125 16.5677 64.9479 12.6667 62.6042C8.76042 60.2448 5.67188 56.8646 3.39583 52.4583C1.13021 48.0573 0 42.8073 0 36.7083V32.8958C0 26.7448 1.22917 21.4479 3.6875 17C6.15625 12.5417 9.71354 9.09896 14.3542 6.66667C19.0052 4.22396 24.5729 3 31.0625 3C37.1979 3 42.3854 4.03125 46.625 6.08333C50.8594 8.125 54.1354 10.8333 56.4583 14.2083C58.7917 17.5833 60.125 21.2917 60.4583 25.3333H42.7708C42.4375 23.2396 41.2969 21.3958 39.3542 19.8125C37.4219 18.2292 34.5469 17.4375 30.7292 17.4375C26.5208 17.4375 23.151 18.7865 20.625 21.4792C18.1094 24.1615 16.8542 28.1042 16.8542 33.3125V35.8125C16.8542 41.0104 18.0938 44.9375 20.5833 47.6042C23.0833 50.2604 26.3802 51.5833 30.4792 51.5833C33.0208 51.5833 35.2292 51.1042 37.1042 50.1458C38.9896 49.1771 40.4896 47.9271 41.6042 46.3958C42.7135 44.8698 43.3802 43.25 43.6042 41.5417Z" fill="#A1BBD1"/>
</svg>
