<svg width="312" height="83" viewBox="0 0 312 83" fill="none" xmlns="http://www.w3.org/2000/svg">
  <path d="M43.6042 41.5417H29.8125V29.5833H60.4583V64.875H52.9792L47.4167 49C46.2083 54.4896 43.6875 58.7188 39.8542 61.6875C36.0312 64.6458 31.4167 66.125 26 66.125C21.0104 66.125 16.5677 64.9479 12.6667 62.6042C8.76042 60.2448 5.67188 56.8646 3.39583 52.4583C1.13021 48.0573 0 42.8073 0 36.7083V32.8958C0 26.7448 1.22917 21.4479 3.6875 17C6.15625 12.5417 9.71354 9.09896 14.3542 6.66667C19.0052 4.22396 24.5729 3 31.0625 3C37.1979 3 42.3854 4.03125 46.625 6.08333C50.8594 8.125 54.1354 10.8333 56.4583 14.2083C58.7917 17.5833 60.125 21.2917 60.4583 25.3333H42.7708C42.4375 23.2396 41.2969 21.3958 39.3542 19.8125C37.4219 18.2292 34.5469 17.4375 30.7292 17.4375C26.5208 17.4375 23.151 18.7865 20.625 21.4792C18.1094 24.1615 16.8542 28.1042 16.8542 33.3125V35.8125C16.8542 41.0104 18.0938 44.9375 20.5833 47.6042C23.0833 50.2604 26.3802 51.5833 30.4792 51.5833C33.0208 51.5833 35.2292 51.1042 37.1042 50.1458C38.9896 49.1771 40.4896 47.9271 41.6042 46.3958C42.7135 44.8698 43.3802 43.25 43.6042 41.5417Z" fill="#FFF"/>
  <path d="M89.3633 19.6045C96.7227 19.6045 102.228 21.4066 105.884 25.0003C109.551 28.5993 111.384 33.891 111.384 40.8753V64.8753H103.905L99.1549 53.417C97.8893 57.4587 95.6185 60.5941 92.3424 62.8128C89.0768 65.0212 85.0612 66.1253 80.3008 66.1253C75.7018 66.1253 72.1862 65.0316 69.7591 62.8545C67.3268 60.6618 66.1133 57.9899 66.1133 54.8337C66.1133 50.0732 68.0091 46.391 71.8008 43.792C75.5924 41.1826 81.5299 39.266 89.6133 38.042L95.5091 37.1253C95.2852 35.3076 94.6758 33.9951 93.6758 33.1878C92.6862 32.3857 91.1966 31.9795 89.1966 31.9795C87.2487 31.9795 85.806 32.3701 84.8633 33.1462C83.931 33.9274 83.3268 34.9482 83.0508 36.2087H67.0924C67.5352 32.891 68.5768 29.9899 70.2174 27.5003C71.8529 25.0003 74.2487 23.0628 77.4049 21.6878C80.556 20.3024 84.5404 19.6045 89.3633 19.6045ZM85.9674 54.0003C87.8945 54.0003 89.6029 53.5837 91.0924 52.7503C92.5924 51.917 93.7695 50.8441 94.6341 49.5212C95.4935 48.1878 95.9258 46.7451 95.9258 45.1878L93.4258 45.6045C86.0612 46.8285 82.3841 48.7399 82.3841 51.3337C82.3841 52.0576 82.6758 52.6826 83.2591 53.2087C83.8424 53.7399 84.7435 54.0003 85.9674 54.0003Z" fill="#FFF"/>
  <path d="M176.904 20.0212C179.789 20.0212 182.393 20.7712 184.716 22.2712C187.049 23.7607 188.888 26.0003 190.237 29.0003C191.596 31.9899 192.279 35.7243 192.279 40.2087V64.8753H176.32V41.2087C176.32 38.4899 175.82 36.5628 174.82 35.4378C173.831 34.3024 172.451 33.7295 170.674 33.7295C168.852 33.7295 167.289 34.4951 165.987 36.0212C164.68 37.5368 164.029 39.8441 164.029 42.9378V64.8753H148.091V41.6253C148.091 38.6826 147.591 36.6357 146.591 35.4795C145.591 34.3128 144.206 33.7295 142.445 33.7295C140.612 33.7295 139.039 34.4951 137.737 36.0212C136.445 37.5368 135.799 39.8441 135.799 42.9378V64.8753H119.758V20.8545H127.32L132.466 33.8128C133.576 28.8857 135.529 25.2868 138.32 23.0212C141.122 20.7451 144.383 19.6045 148.091 19.6045C151.409 19.6045 154.367 20.5368 156.966 22.3962C159.576 24.2451 161.492 27.0212 162.716 30.7295C164.143 27.1357 166.117 24.4535 168.633 22.6878C171.159 20.9118 173.914 20.0212 176.904 20.0212Z" fill="#FFF"/>
  <path d="M217.283 7.97917C217.283 5.53646 216.533 3.59896 215.033 2.16667C213.533 0.723959 211.454 0 208.803 0C206.147 0 204.074 0.723959 202.574 2.16667C201.074 3.59896 200.324 5.53646 200.324 7.97917C200.324 10.4115 201.074 12.349 202.574 13.7917C204.074 15.2396 206.147 15.9583 208.803 15.9583C211.454 15.9583 213.533 15.2396 215.033 13.7917C216.533 12.349 217.283 10.4115 217.283 7.97917ZM216.783 64.875H200.824V20.8542H216.783V64.875Z" fill="#FFF"/>
  <path d="M254.24 16.2917C251.531 16.2917 249.719 16.6823 248.802 17.4583C247.885 18.224 247.427 19.6354 247.427 21.6875V23.1875H261.969V36.4583H247.76V64.875H231.802V36.4583H222.844V23.1875H231.802V20.5208C231.802 18.0365 232.052 15.7448 232.552 13.6458C233.052 11.5365 233.979 9.67708 235.344 8.0625C236.703 6.45313 238.615 5.20833 241.073 4.33333C243.531 3.44792 246.75 3 250.74 3C253.458 3 255.76 3.14063 257.635 3.41667C259.521 3.69792 260.969 3.96875 261.969 4.22917V16.7917C261.188 16.6823 260.104 16.5729 258.719 16.4583C257.344 16.349 255.849 16.2917 254.24 16.2917Z" fill="#FFF"/>
  <path d="M287.04 47.1878L295.27 20.8545H311.207L296.686 62.292C294.905 67.3337 292.988 71.3337 290.936 74.292C288.895 77.2607 286.525 79.3805 283.832 80.6462C281.15 81.9222 277.926 82.5628 274.165 82.5628C272.457 82.5628 270.822 82.4482 269.27 82.2295C267.712 82.0055 266.415 81.7555 265.374 81.4795V68.6878C266.415 68.7972 267.462 68.8962 268.52 68.9795C269.572 69.0628 270.52 69.1045 271.353 69.1045C273.113 69.1045 274.509 68.7399 275.54 68.0212C276.566 67.3128 277.415 65.9274 278.082 63.8753L261.957 20.8545H278.749L287.04 47.1878Z" fill="#FFF"/>
</svg>
