<svg xmlns="http://www.w3.org/2000/svg" xmlns:xlink="http://www.w3.org/1999/xlink" xmlns:inkscape="http://www.inkscape.org/namespaces/inkscape" version="1.1" width="971.063" height="444.964" viewBox="0 0 971.063 444.964">
<defs>
<clipPath id="clip_1">
<path transform="matrix(1,0,0,-1,0,444.964)" d="M0 444.964H971.062V0H0Z"/>
</clipPath>
</defs>
<g inkscape:groupmode="layer" inkscape:label="Layer 1">
<g clip-path="url(#clip_1)">
<path transform="matrix(1,0,0,-1,367.356,67.6535)" d="M0 0C0-8.955-7.235-16.19-16.19-16.19-25.143-16.19-32.378-8.955-32.378 0-32.378 8.954-25.143 16.188-16.19 16.188-7.235 16.188 0 8.954 0 0" fill="#16becf"/>
<path transform="matrix(1,0,0,-1,134.2402,223.06359)" d="M0 0C0-8.954-7.234-16.187-16.188-16.187-25.142-16.187-32.377-8.954-32.377 0-32.377 8.955-25.142 16.188-16.188 16.188-7.234 16.188 0 8.955 0 0" fill="#16becf"/>
<path transform="matrix(1,0,0,-1,237.8472,352.57139)" d="M0 0C0-8.955-7.233-16.188-16.188-16.188-25.143-16.188-32.377-8.955-32.377 0-32.377 8.954-25.143 16.187-16.188 16.187-7.233 16.187 0 8.954 0 0" fill="#16becf"/>
<path transform="matrix(1,0,0,-1,341.4536,378.4738)" d="M0 0C0-8.954-7.235-16.188-16.188-16.188-25.143-16.188-32.377-8.954-32.377 0-32.377 8.955-25.143 16.189-16.188 16.189-7.235 16.189 0 8.955 0 0" fill="#16becf"/>
<path transform="matrix(1,0,0,-1,247.54,235.85948)" d="M0 0-21.713 55.152H-31.608L-.212-22.248 31.173 55.152H21.824ZM37.851-20.104H46.887V29.564H37.851ZM42.363 51.601C39.034 51.601 36.243 48.808 36.243 45.479 36.243 42.14 39.034 39.348 42.363 39.348 45.702 39.348 48.494 42.14 48.494 45.479 48.494 48.808 45.702 51.601 42.363 51.601M81.722 8.812C72.788 10.827 69.681 12.577 69.681 16.341 69.681 19.892 72.808 22.684 79.142 22.684 86.669 22.684 92.021 17.736 92.021 17.736L97.677 24.111C97.677 24.111 90.868 30.86 79.142 30.86 68.073 30.86 60.869 23.757 60.869 16.553 60.869 7.204 68.396 3.015 79.04 .86 86.669-.647 90.322-2.792 90.322-7.092 90.322-10.674 86.71-13.225 79.87-13.225 70.167-13.225 64.521-5.16 64.521-5.16L58.289-10.968C58.289-10.968 65.31-21.39 79.87-21.39 90.312-21.39 99.246-16.128 99.246-6.88 99.246 3.227 91.172 6.688 81.722 8.812M132.018 30.86C117.074 30.86 107.189 19.244 107.189 4.735 107.189-9.997 118.045-21.39 133.09-21.39 146.212-21.39 153.741-11.605 153.741-11.605L148.044-5.697C148.044-5.697 142.884-13.001 133.09-13.001 123.741-13.001 116.537-6.021 116.001 1.508H156.097C156.209 2.69 156.209 3.441 156.209 4.412 156.209 20.428 145.89 30.86 132.018 30.86M116.213 9.036C116.862 14.195 121.272 22.472 132.018 22.472 142.024 22.472 147.073 14.621 147.396 9.036ZM204.461 22.36C204.461 22.36 199.624 30.86 187.696 30.86 174.26 30.86 163.616 19.356 163.616 4.735 163.616-9.885 174.26-21.39 187.696-21.39 196.832-21.39 201.993-16.128 203.712-13.862V-20.742C203.712-31.921 197.156-37.73 186.623-37.73 176.405-37.73 170.384-29.89 170.384-29.89L164.901-36.657C164.901-36.657 172.964-46.117 186.623-46.117 201.021-46.117 212.748-37.517 212.748-20.316V29.564H204.461ZM203.712-4.624C203.712-4.624 198.987-13.001 189.092-13.001 178.984-13.001 172.64-5.049 172.64 4.735 172.64 14.519 178.984 22.472 189.092 22.472 198.876 22.472 203.712 14.085 203.712 14.085ZM234.886 21.936V29.564H226.498V-20.104H235.523V14.085C235.523 14.085 238.396 22.472 247.29 22.472 251.6 22.472 254.2 20.894 254.2 20.894L255.951 29.564C255.951 29.564 252.834 30.86 248.747 30.86 238.478 30.86 234.886 21.936 234.886 21.936M282.156 30.86C270.227 30.86 263.559 25.801 263.559 25.801L267.323 18.273C267.323 18.273 273.04 22.472 282.156 22.472 286.132 22.472 294.733 21.075 294.733 10.756V8.064C294.733 8.064 288.925 12.151 279.788 12.151 268.608 12.151 260.12 5.271 260.12-4.401 260.12-15.156 269.691-21.39 278.605-21.39 289.895-21.39 295.491-12.9 295.491-12.9V-20.104H303.768V12.577C303.768 21.824 296.777 30.86 282.156 30.86M294.733-5.909C294.733-5.909 289.359-13.437 280.547-13.437 274.952-13.437 269.144-10.856 269.144-4.401 269.144 .759 273.991 4.624 281.732 4.624 289.785 4.624 294.733 1.073 294.733 1.073ZM354.18 23.433C354.18 23.433 349.13 30.86 338.163 30.86 324.727 30.86 314.082 19.356 314.082 4.735 314.082-9.885 324.727-21.39 338.163-21.39 350.092-21.39 354.939-12.9 354.939-12.9V-20.104H363.214V56.963H354.18ZM354.18-4.401C354.18-4.401 349.454-13.001 339.559-13.001 329.452-13.001 323.118-5.049 323.118 4.735 323.118 14.519 329.674 22.472 339.559 22.472 349.454 22.472 354.18 13.871 354.18 13.871ZM410.936-20.104H419.96V9.783H450.35V18.384H419.96V46.552H452.317V55.152H410.936ZM494.943-4.836C494.943-4.836 490.967-13.001 482.58-13.001 475.912-13.001 470.651-9.35 470.651-.86V29.564H461.615V-2.368C461.615-14.621 470.428-21.39 480.324-21.39 491.069-21.39 495.591-12.465 495.591-12.465V-20.104H503.969V29.564H494.943ZM542.841 30.86C532.096 30.86 527.584 22.573 527.584 22.573V29.564H519.196V-20.104H528.222V14.085C528.222 14.085 532.521 22.472 540.585 22.472 547.253 22.472 552.523 18.819 552.523 10.32V-20.104H561.55V11.827C561.55 24.08 552.736 30.86 542.841 30.86M612.625 56.963V23.433C612.625 23.433 607.576 30.86 596.607 30.86 583.171 30.86 572.528 19.356 572.528 4.735 572.528-9.885 583.171-21.39 596.607-21.39 608.537-21.39 613.373-12.9 613.373-12.9V-20.104H621.659V56.963ZM612.625-4.401C612.625-4.401 607.9-13.001 598.005-13.001 587.896-13.001 581.553-5.049 581.553 4.735 581.553 14.519 588.119 22.472 598.005 22.472 607.9 22.472 612.625 13.871 612.625 13.871Z" fill="#16becf"/>
</g>
</g>
</svg>
